<svg width="33" height="46" viewBox="0 0 33 46" fill="none" xmlns="http://www.w3.org/2000/svg">
<path d="M16.7754 39C16.9018 39.2157 16.902 39.2156 16.9022 39.2155L16.9028 39.2151L16.9052 39.2137L16.914 39.2085L16.9476 39.1884C16.9771 39.1707 17.0205 39.1444 17.0768 39.1096C17.1895 39.0402 17.3541 38.9369 17.5632 38.8009C17.9813 38.5289 18.5776 38.1256 19.2926 37.5991C20.7222 36.5465 22.6288 35 24.5361 33.0238C28.2995 29.1246 32.0942 23.5229 32.1853 16.7231H32.1962V16.4731C32.1962 12.3031 30.5396 8.30383 27.591 5.35518C24.6423 2.40653 20.6431 0.75 16.4731 0.75C12.3031 0.75 8.30383 2.40653 5.35518 5.35518C2.40653 8.30383 0.75 12.3031 0.75 16.4731C0.75 21.981 3.3959 26.826 6.47494 30.6102L6.47656 30.6122C9.30662 34.0193 12.9441 36.8126 16.6393 39.2097L16.7688 39.2937L16.9018 39.2157L16.7754 39Z" fill="url(#paint0_linear)" stroke="white" stroke-width="0.5"/>
<path style="mix-blend-mode:multiply" d="M19.6553 17.6821L6.88507 30.4523C9.69209 33.8318 13.3137 36.6091 16.9993 38.9999C16.9993 38.9999 31.2379 30.6421 32.1103 17.6821H19.6553Z" fill="url(#paint1_linear)"/>
<path style="mix-blend-mode:multiply" d="M21.7676 1.85703C19.4361 1.04697 16.9446 0.806447 14.5011 1.15554C12.0577 1.50463 9.73318 2.43321 7.72174 3.86375C5.71031 5.29428 4.07028 7.18526 2.93861 9.3788C1.80693 11.5723 1.21644 14.0048 1.21643 16.473C1.22049 18.1196 1.45331 19.7575 1.9082 21.3399L12.2879 11.3368L21.7676 1.85703Z" fill="url(#paint2_linear)"/>
<path d="M19.2496 43C19.2496 41.7574 18.2423 40.75 16.9996 40.75C15.757 40.75 14.7496 41.7574 14.7496 43C14.7496 44.2426 15.757 45.25 16.9996 45.25C18.2423 45.25 19.2496 44.2426 19.2496 43Z" fill="url(#paint3_radial)" stroke="white" stroke-width="0.5"/>
<path d="M26.114 15.769C26.114 10.4907 21.8351 6.21182 16.5568 6.21182C11.2785 6.21182 6.99963 10.4907 6.99963 15.769C6.99963 21.0473 11.2785 25.3262 16.5568 25.3262C21.8351 25.3262 26.114 21.0473 26.114 15.769Z" fill="white"/>
<defs>
<linearGradient id="paint0_linear" x1="16.4731" y1="1" x2="16.4731" y2="39.1577" gradientUnits="userSpaceOnUse">
<stop stop-color="#17599C"/>
<stop offset="1" stop-color="#1363A7"/>
</linearGradient>
<linearGradient id="paint1_linear" x1="20.4848" y1="27.3057" x2="6.70141" y2="23.3877" gradientUnits="userSpaceOnUse">
<stop stop-color="white"/>
<stop offset="1" stop-color="#1D4886"/>
</linearGradient>
<linearGradient id="paint2_linear" x1="2483.8" y1="2228.22" x2="3630.07" y2="2456.87" gradientUnits="userSpaceOnUse">
<stop stop-color="white"/>
<stop offset="1" stop-color="#1E4685"/>
</linearGradient>
<radialGradient id="paint3_radial" cx="0" cy="0" r="1" gradientUnits="userSpaceOnUse" gradientTransform="translate(16.9996 43) scale(2)">
<stop stop-color="#1265A9"/>
<stop offset="1" stop-color="#1D4989"/>
</radialGradient>
</defs>
</svg>
